<svg width="12" height="12" viewBox="0 0 12 12" fill="none" xmlns="http://www.w3.org/2000/svg">
<g id="bold/CaretDown">
<path id="Vector" d="M10.1494 4.89793L6.39941 8.64793C6.34716 8.70037 6.28506 8.74198 6.21669 8.77037C6.14831 8.79876 6.07501 8.81337 6.00098 8.81337C5.92694 8.81337 5.85364 8.79876 5.78526 8.77037C5.71689 8.74198 5.6548 8.70037 5.60254 8.64793L1.85254 4.89793C1.74687 4.79226 1.6875 4.64893 1.6875 4.49949C1.6875 4.35005 1.74687 4.20673 1.85254 4.10105C1.95821 3.99538 2.10153 3.93602 2.25098 3.93602C2.40042 3.93602 2.54374 3.99538 2.64941 4.10105L6.00144 7.45308L9.35348 4.10059C9.45915 3.99491 9.60247 3.93555 9.75191 3.93555C9.90136 3.93555 10.0447 3.99491 10.1504 4.10059C10.256 4.20626 10.3154 4.34958 10.3154 4.49902C10.3154 4.64847 10.256 4.79179 10.1504 4.89746L10.1494 4.89793Z" fill="#848895"/>
</g>
</svg>
