<svg width="144" height="123" viewBox="0 0 144 123" fill="none" xmlns="http://www.w3.org/2000/svg">
<path d="M9.65072 71.1475L58.4229 22.1927C66.5687 14.0164 80.5328 19.7853 80.5328 31.3267V72.0944C80.5328 76.6161 84.1983 80.2816 88.7199 80.2816C93.2416 80.2816 96.9071 76.6161 96.9071 72.0944V31.3267C96.9071 19.7853 110.871 14.0164 119.017 22.1927L167.789 71.1475C172.82 76.1976 172.82 84.3655 167.789 89.4156L97.8882 159.578C92.8302 164.655 84.6096 164.655 79.5517 159.578L9.65073 89.4156C4.61947 84.3655 4.61947 76.1976 9.65072 71.1475Z" stroke="#5251DA" stroke-opacity="0.2" stroke-width="9.70626"/>
<path d="M3.91016 97.4023L70.9989 164.579M106.442 164.579L173.531 97.4023" stroke="#5251DA" stroke-opacity="0.2" stroke-width="5.87794"/>
</svg>
