<svg width="15" height="9" viewBox="0 0 15 9" fill="none" xmlns="http://www.w3.org/2000/svg">
<path d="M14.2987 1.1875V5.40625C14.2987 5.59273 14.2246 5.77157 14.0927 5.90343C13.9609 6.0353 13.782 6.10938 13.5956 6.10938C13.4091 6.10938 13.2302 6.0353 13.0984 5.90343C12.9665 5.77157 12.8924 5.59273 12.8924 5.40625V2.88672L7.53052 8.24922C7.46519 8.31477 7.38757 8.36678 7.30211 8.40227C7.21664 8.43776 7.12501 8.45602 7.03247 8.45602C6.93993 8.45602 6.8483 8.43776 6.76283 8.40227C6.67737 8.36678 6.59975 8.31477 6.53442 8.24922L0.909423 2.62422C0.777333 2.49213 0.703125 2.31298 0.703125 2.12617C0.703125 1.93937 0.777333 1.76022 0.909423 1.62812C1.04151 1.49603 1.22067 1.42183 1.40747 1.42183C1.59427 1.42183 1.77343 1.49603 1.90552 1.62812L7.03306 6.75391L11.8963 1.89062H9.37681C9.19033 1.89062 9.01148 1.81655 8.87962 1.68468C8.74776 1.55282 8.67368 1.37398 8.67368 1.1875C8.67368 1.00102 8.74776 0.822177 8.87962 0.690315C9.01148 0.558454 9.19033 0.484375 9.37681 0.484375H13.5956C13.782 0.484375 13.9609 0.558454 14.0927 0.690315C14.2246 0.822177 14.2987 1.00102 14.2987 1.1875Z" fill="white"/>
</svg>
