<svg width="48" height="58" viewBox="0 0 48 58" fill="none" xmlns="http://www.w3.org/2000/svg">
    <path fill-rule="evenodd" clip-rule="evenodd" d="M32.9135 19.6475C32.9135 19.7124 32.9099 19.7728 32.9063 19.8378C32.902 19.8703 32.8983 19.906 32.8947 19.9385C32.8868 19.9853 32.8789 20.0321 32.8709 20.0749C32.8709 20.0931 32.863 20.1113 32.8594 20.1289C32.7597 20.5541 32.5284 20.9452 32.1923 21.257C31.8562 21.5688 31.4289 21.7884 30.96 21.8906C30.4911 21.9927 29.9996 21.9732 29.5425 21.8342C29.0854 21.6952 28.6814 21.4424 28.3771 21.1051C28.0728 20.7679 27.8807 20.3599 27.823 19.9284C27.7653 19.4969 27.8445 19.0595 28.0513 18.6668C28.258 18.2741 28.584 17.9422 28.9914 17.7094C29.3988 17.4767 29.8711 17.3526 30.3535 17.3516C30.4408 17.3516 30.5288 17.3548 30.6167 17.3613C30.7047 17.3678 30.784 17.3827 30.8677 17.397C30.8756 17.397 30.8835 17.397 30.8915 17.397C30.9647 17.4111 31.0369 17.4289 31.1078 17.4503C31.1713 17.4678 31.2275 17.486 31.2874 17.5075C31.335 17.525 31.379 17.5432 31.4229 17.5608C31.4805 17.5842 31.5366 17.6104 31.591 17.6394C31.6485 17.6647 31.7032 17.6947 31.7547 17.729C31.7976 17.7531 31.839 17.7794 31.8787 17.8076C31.9127 17.8267 31.9448 17.8485 31.9746 17.8726C32.0444 17.9229 32.11 17.9778 32.1707 18.037C32.4568 18.2949 32.6697 18.6111 32.7916 18.9588C32.8708 19.1815 32.9119 19.4137 32.9135 19.6475Z" fill="white"/>
    <path d="M43.6646 25.1481C43.6251 24.6873 43.5864 24.2014 43.5034 23.7136L40.9922 7.22554C40.7201 5.25045 40.0012 3.54332 38.9224 2.30165C37.9838 1.19494 36.7792 0.449671 35.4399 0.155383C34.9811 0.0512949 34.5114 -0.000844825 34.0401 1.03505e-05C33.1037 0.00608014 32.1798 0.208215 31.3317 0.592537C29.8312 1.27855 28.462 2.4985 27.3867 4.08515L23.0098 10.2046L18.5363 3.99759L18.5016 3.96796C17.4018 2.42344 16.0972 1.30818 14.6062 0.63533C13.7617 0.261006 12.8437 0.0672192 11.9148 0.0671626C11.4434 0.0676326 10.9736 0.121322 10.515 0.227144C9.17575 0.533941 7.97592 1.28052 7.04953 2.38987C5.97553 3.64734 5.26271 5.35908 5.00153 7.31771L2.55834 23.8426C2.21486 26.2535 2.60596 28.3577 3.70172 29.9404C4.42191 30.9647 5.44695 31.7527 6.64074 32.1999C7.34855 32.4495 8.09594 32.5776 8.84926 32.5784C9.36338 32.5733 9.8753 32.5128 10.3756 32.398C12.4494 31.9135 14.3797 30.5586 15.8013 28.5848L15.8537 28.519L15.8884 28.4432L24.9183 15.7513C24.9902 15.6716 25.0544 15.5856 25.1102 15.4946L31.3535 6.72057C32.1574 5.57568 32.9097 5.06677 33.4185 4.82647C33.6169 4.72436 33.8372 4.66824 34.0619 4.66253C34.1497 4.66148 34.2373 4.67143 34.3224 4.69216L34.3795 4.70862C34.6142 4.75536 34.9237 4.97196 35.2053 5.2893C35.6814 5.81994 36.0399 6.74954 36.2255 7.89049L38.7476 24.4332C38.7789 24.6037 38.7925 24.7768 38.8075 24.9546L38.8163 25.8361C38.7605 26.4609 38.6007 26.9553 38.3402 27.3115C38.1513 27.5596 37.8714 27.7283 37.558 27.7829C37.475 27.7915 37.4009 27.7994 37.3315 27.8125L27.1452 28.1154L29.2014 25.1481L29.3653 24.9118C29.5628 24.6262 29.6352 24.2764 29.5666 23.9392C29.498 23.602 29.294 23.3049 28.9994 23.1131L27.2167 21.9498C27.0703 21.8546 26.9061 21.7884 26.7332 21.7548C26.5604 21.7211 26.3824 21.7209 26.2095 21.754C26.0365 21.787 25.872 21.8528 25.7254 21.9476C25.5788 22.0423 25.4529 22.1641 25.355 22.306L20.9924 28.6309C20.7064 29.0089 20.5568 29.4674 20.5666 29.9358C20.5707 31.2525 21.7535 32.5363 23.0751 32.5323L37.4226 32.4856C37.7049 32.4824 37.9861 32.4515 38.262 32.3934C39.0639 32.2872 39.8345 32.0214 40.5251 31.6128C41.2157 31.2042 41.8115 30.6617 42.275 30.0194C43.2442 28.7152 43.7136 27.0989 43.67 25.2179L43.6646 25.1481ZM11.8454 25.8677L11.7278 26.0534C10.9537 27.0251 10.0756 27.6611 9.2975 27.8125L9.24512 27.8204C8.93969 27.9047 8.616 27.9047 8.31057 27.8204C8.07957 27.715 7.88375 27.5489 7.74534 27.3412C7.30595 26.7012 7.17604 25.7124 7.36241 24.4878L9.77158 7.97871C9.95386 6.82526 10.3103 5.8996 10.7755 5.36501C11.0802 5.02002 11.3496 4.82252 11.5842 4.78038L11.6318 4.76787L11.6713 4.75931C11.7464 4.73881 11.8239 4.72753 11.9019 4.72574C12.1319 4.73224 12.3575 4.78824 12.5623 4.88967L12.6188 4.91469C13.2364 5.17803 13.9111 5.77056 14.5668 6.64486L14.5974 6.7107L20.0925 14.3023L11.8454 25.8677Z" fill="white"/>
    <path d="M13.863 42.794C15.0982 42.794 16.078 43.1681 16.8025 43.9163C17.5389 44.6646 17.9071 45.7038 17.9071 47.034V52.8418H14.8785V47.4438C14.8785 46.8024 14.7063 46.3095 14.3618 45.9651C14.0293 45.6088 13.5661 45.4306 12.9723 45.4306C12.3784 45.4306 11.9093 45.6088 11.5648 45.9651C11.2323 46.3095 11.066 46.8024 11.066 47.4438V52.8418H8.03742V47.4438C8.03742 46.8024 7.86521 46.3095 7.52078 45.9651C7.18823 45.6088 6.72503 45.4306 6.13119 45.4306C5.53734 45.4306 5.06821 45.6088 4.72378 45.9651C4.39123 46.3095 4.22495 46.8024 4.22495 47.4438V52.8418H1.17854V42.9009H4.22495V44.1479C4.53375 43.7323 4.93756 43.4056 5.43639 43.1681C5.93522 42.9187 6.49937 42.794 7.12884 42.794C7.87708 42.794 8.54219 42.9543 9.12415 43.275C9.718 43.5957 10.1812 44.0529 10.5137 44.6468C10.8582 44.1004 11.3273 43.6551 11.9212 43.3106C12.515 42.9662 13.1623 42.794 13.863 42.794ZM23.1375 52.9843C22.1636 52.9843 21.2847 52.7765 20.5009 52.3608C19.7289 51.9451 19.1172 51.3513 18.6659 50.5793C18.2265 49.8073 18.0067 48.9046 18.0067 47.8713C18.0067 46.8499 18.2324 45.9532 18.6837 45.1812C19.135 44.3974 19.7526 43.7976 20.5365 43.3819C21.3204 42.9662 22.1993 42.7584 23.1732 42.7584C24.1471 42.7584 25.026 42.9662 25.8098 43.3819C26.5937 43.7976 27.2113 44.3974 27.6626 45.1812C28.1139 45.9532 28.3396 46.8499 28.3396 47.8713C28.3396 48.8927 28.108 49.7954 27.6448 50.5793C27.1935 51.3513 26.5699 51.9451 25.7742 52.3608C24.9903 52.7765 24.1114 52.9843 23.1375 52.9843ZM23.1375 50.3477C23.7195 50.3477 24.2124 50.1339 24.6162 49.7063C25.0319 49.2787 25.2397 48.6671 25.2397 47.8713C25.2397 47.0756 25.0378 46.4639 24.634 46.0364C24.2421 45.6088 23.7551 45.395 23.1732 45.395C22.5793 45.395 22.0864 45.6088 21.6945 46.0364C21.3026 46.4521 21.1066 47.0637 21.1066 47.8713C21.1066 48.6671 21.2966 49.2787 21.6767 49.7063C22.0686 50.1339 22.5556 50.3477 23.1375 50.3477ZM31.577 44.3083C31.862 43.8451 32.2718 43.471 32.8062 43.1859C33.3407 42.9009 33.9523 42.7584 34.6412 42.7584C35.4607 42.7584 36.203 42.9662 36.8681 43.3819C37.5332 43.7976 38.0558 44.3914 38.4358 45.1634C38.8278 45.9354 39.0237 46.8321 39.0237 47.8535C39.0237 48.8749 38.8278 49.7776 38.4358 50.5614C38.0558 51.3334 37.5332 51.9332 36.8681 52.3608C36.203 52.7765 35.4607 52.9843 34.6412 52.9843C33.9405 52.9843 33.3288 52.8477 32.8062 52.5746C32.2836 52.2895 31.8739 51.9154 31.577 51.4522V52.8418H28.5306V39.6585H31.577V44.3083ZM35.9239 47.8535C35.9239 47.0934 35.7101 46.4996 35.2825 46.072C34.8669 45.6325 34.3502 45.4128 33.7326 45.4128C33.1269 45.4128 32.6103 45.6325 32.1827 46.072C31.767 46.5114 31.5591 47.1112 31.5591 47.8713C31.5591 48.6315 31.767 49.2312 32.1827 49.6707C32.6103 50.1101 33.1269 50.3298 33.7326 50.3298C34.3383 50.3298 34.855 50.1101 35.2825 49.6707C35.7101 49.2194 35.9239 48.6136 35.9239 47.8535ZM40.7289 41.8676C40.1944 41.8676 39.755 41.7132 39.4105 41.4044C39.078 41.0837 38.9117 40.6918 38.9117 40.2286C38.9117 39.7535 39.078 39.3616 39.4105 39.0528C39.755 38.7321 40.1944 38.5718 40.7289 38.5718C41.2514 38.5718 41.679 38.7321 42.0116 39.0528C42.356 39.3616 42.5282 39.7535 42.5282 40.2286C42.5282 40.6918 42.356 41.0837 42.0116 41.4044C41.679 41.7132 41.2514 41.8676 40.7289 41.8676ZM42.2432 42.9009V52.8418H39.1968V42.9009H42.2432ZM44.5578 41.8676C44.0233 41.8676 43.5839 41.7132 43.2394 41.4044C42.9069 41.0837 42.7406 40.6918 42.7406 40.2286C42.7406 39.7535 42.9069 39.3616 43.2394 39.0528C43.5839 38.7321 44.0233 38.5718 44.5578 38.5718C45.0803 38.5718 45.5079 38.7321 45.8405 39.0528C46.1849 39.3616 46.3571 39.7535 46.3571 40.2286C46.3571 40.6918 46.1849 41.0837 45.8405 41.4044C45.5079 41.7132 45.0803 41.8676 44.5578 41.8676ZM46.0721 42.9009V52.8418H43.0256V42.9009H46.0721Z" fill="white"/>
</svg>