<svg width="232" height="53" viewBox="0 0 232 53" fill="none" xmlns="http://www.w3.org/2000/svg">
<path d="M2.8126 21.9902L17.887 6.8593C20.4047 4.33218 24.7208 6.11521 24.7208 9.68243V22.2829C24.7208 23.6804 25.8537 24.8133 27.2512 24.8133C28.6488 24.8133 29.7817 23.6804 29.7817 22.2829V9.68244C29.7817 6.11521 34.0977 4.33218 36.6154 6.8593L51.6899 21.9902C53.2449 23.5511 53.2449 26.0756 51.6899 27.6365L30.0849 49.3223C28.5216 50.8915 25.9808 50.8915 24.4175 49.3223L2.8126 27.6365C1.25755 26.0756 1.25755 23.5511 2.8126 21.9902Z" stroke="white" stroke-width="3"/>
<path d="M1.03906 30.1055L21.7748 50.8683M32.7295 50.8683L53.4652 30.1055" stroke="white" stroke-width="1.81675"/>
<path d="M75.8629 13.8586H82.9398L90.4143 32.0942H90.7324L98.2068 13.8586H105.284V41H99.7176V23.3342H99.4924L92.4684 40.8675H88.6782L81.6543 23.268H81.429V41H75.8629V13.8586ZM119.103 41.3976C117.044 41.3976 115.264 40.9602 113.762 40.0856C112.269 39.2021 111.116 37.974 110.303 36.4013C109.49 34.8198 109.084 32.9866 109.084 30.9015C109.084 28.7987 109.49 26.961 110.303 25.3884C111.116 23.8069 112.269 22.5788 113.762 21.7041C115.264 20.8206 117.044 20.3789 119.103 20.3789C121.162 20.3789 122.937 20.8206 124.431 21.7041C125.932 22.5788 127.09 23.8069 127.903 25.3884C128.716 26.961 129.122 28.7987 129.122 30.9015C129.122 32.9866 128.716 34.8198 127.903 36.4013C127.09 37.974 125.932 39.2021 124.431 40.0856C122.937 40.9602 121.162 41.3976 119.103 41.3976ZM119.129 37.0242C120.066 37.0242 120.848 36.7592 121.475 36.229C122.102 35.6901 122.575 34.9568 122.893 34.0291C123.22 33.1014 123.384 32.0456 123.384 30.8617C123.384 29.6778 123.22 28.622 122.893 27.6943C122.575 26.7667 122.102 26.0333 121.475 25.4944C120.848 24.9555 120.066 24.686 119.129 24.686C118.184 24.686 117.389 24.9555 116.744 25.4944C116.108 26.0333 115.626 26.7667 115.299 27.6943C114.981 28.622 114.822 29.6778 114.822 30.8617C114.822 32.0456 114.981 33.1014 115.299 34.0291C115.626 34.9568 116.108 35.6901 116.744 36.229C117.389 36.7592 118.184 37.0242 119.129 37.0242ZM132.899 41V13.8586H138.545V24.0631H138.717C138.964 23.5153 139.322 22.9587 139.79 22.3933C140.267 21.819 140.886 21.3419 141.646 20.962C142.414 20.5733 143.369 20.3789 144.508 20.3789C145.993 20.3789 147.362 20.7676 148.617 21.5451C149.871 22.3138 150.874 23.4756 151.625 25.0306C152.376 26.5767 152.751 28.516 152.751 30.8485C152.751 33.1191 152.385 35.0363 151.651 36.6001C150.927 38.1551 149.937 39.3346 148.683 40.1386C147.437 40.9337 146.041 41.3313 144.495 41.3313C143.399 41.3313 142.467 41.1502 141.699 40.788C140.939 40.4257 140.316 39.9707 139.83 39.4229C139.344 38.8663 138.973 38.3053 138.717 37.7398H138.465V41H132.899ZM138.425 30.822C138.425 32.0324 138.593 33.0882 138.929 33.9893C139.265 34.8905 139.751 35.5929 140.387 36.0965C141.023 36.5913 141.796 36.8387 142.706 36.8387C143.625 36.8387 144.402 36.5869 145.038 36.0833C145.675 35.5708 146.156 34.864 146.483 33.9628C146.819 33.0528 146.987 32.0059 146.987 30.822C146.987 29.6469 146.823 28.6132 146.496 27.7208C146.169 26.8285 145.688 26.1305 145.052 25.6269C144.416 25.1233 143.634 24.8715 142.706 24.8715C141.787 24.8715 141.01 25.1145 140.373 25.6004C139.746 26.0864 139.265 26.7755 138.929 27.6678C138.593 28.5602 138.425 29.6116 138.425 30.822ZM156.518 41V20.6439H162.164V41H156.518ZM159.355 18.0199C158.515 18.0199 157.795 17.7416 157.194 17.185C156.602 16.6195 156.306 15.9437 156.306 15.1573C156.306 14.3798 156.602 13.7128 157.194 13.1562C157.795 12.5907 158.515 12.308 159.355 12.308C160.194 12.308 160.91 12.5907 161.501 13.1562C162.102 13.7128 162.403 14.3798 162.403 15.1573C162.403 15.9437 162.102 16.6195 161.501 17.185C160.91 17.7416 160.194 18.0199 159.355 18.0199ZM166.687 41V20.6439H172.332V41H166.687ZM169.523 18.0199C168.683 18.0199 167.963 17.7416 167.362 17.185C166.771 16.6195 166.475 15.9437 166.475 15.1573C166.475 14.3798 166.771 13.7128 167.362 13.1562C167.963 12.5907 168.683 12.308 169.523 12.308C170.362 12.308 171.078 12.5907 171.67 13.1562C172.27 13.7128 172.571 14.3798 172.571 15.1573C172.571 15.9437 172.27 16.6195 171.67 17.185C171.078 17.7416 170.362 18.0199 169.523 18.0199ZM189.909 32.3328V20.6439H195.554V41H190.134V37.3025H189.922C189.462 38.4952 188.698 39.4539 187.629 40.1783C186.569 40.9028 185.275 41.2651 183.746 41.2651C182.385 41.2651 181.188 40.9558 180.155 40.3374C179.121 39.7189 178.312 38.8398 177.729 37.7001C177.155 36.5604 176.864 35.1953 176.855 33.605V20.6439H182.5V32.5978C182.509 33.7994 182.832 34.7492 183.468 35.4471C184.104 36.1451 184.956 36.4941 186.026 36.4941C186.706 36.4941 187.342 36.3395 187.934 36.0303C188.526 35.7122 189.003 35.2439 189.365 34.6255C189.736 34.007 189.917 33.2428 189.909 32.3328ZM217.007 26.4486L211.838 26.7667C211.75 26.3249 211.56 25.9273 211.269 25.5739C210.977 25.2117 210.593 24.9245 210.116 24.7125C209.647 24.4916 209.086 24.3812 208.432 24.3812C207.558 24.3812 206.82 24.5667 206.219 24.9378C205.618 25.3 205.318 25.786 205.318 26.3956C205.318 26.8815 205.512 27.2923 205.901 27.6281C206.29 27.9638 206.957 28.2333 207.902 28.4365L211.587 29.1786C213.566 29.5851 215.041 30.2388 216.013 31.14C216.985 32.0412 217.471 33.2251 217.471 34.6917C217.471 36.0258 217.078 37.1965 216.291 38.2037C215.514 39.2109 214.445 39.9972 213.084 40.5627C211.732 41.1193 210.173 41.3976 208.406 41.3976C205.711 41.3976 203.564 40.8366 201.965 39.7145C200.375 38.5836 199.443 37.0463 199.169 35.1026L204.722 34.811C204.89 35.6327 205.296 36.26 205.941 36.6929C206.586 37.117 207.412 37.329 208.419 37.329C209.409 37.329 210.204 37.1391 210.805 36.7592C211.414 36.3704 211.724 35.8712 211.732 35.2616C211.724 34.7492 211.507 34.3295 211.083 34.0026C210.659 33.6669 210.005 33.4106 209.122 33.2339L205.596 32.5316C203.608 32.134 202.129 31.4448 201.157 30.4641C200.194 29.4834 199.712 28.2333 199.712 26.7136C199.712 25.406 200.066 24.2796 200.772 23.3342C201.488 22.3889 202.491 21.66 203.781 21.1475C205.08 20.6351 206.599 20.3789 208.34 20.3789C210.911 20.3789 212.934 20.9222 214.409 22.009C215.894 23.0957 216.76 24.5756 217.007 26.4486ZM225.083 41.3916C224.089 41.3916 223.236 41.0402 222.523 40.3374C221.82 39.6245 221.469 38.7711 221.469 37.7772C221.469 36.7933 221.82 35.9499 222.523 35.2471C223.236 34.5444 224.089 34.193 225.083 34.193C226.047 34.193 226.89 34.5444 227.613 35.2471C228.336 35.9499 228.697 36.7933 228.697 37.7772C228.697 38.4398 228.527 39.0472 228.185 39.5994C227.854 40.1416 227.417 40.5783 226.875 40.9096C226.333 41.2309 225.735 41.3916 225.083 41.3916Z" fill="white"/>
</svg>
