<svg width="1440" height="1024" viewBox="0 0 1440 1024" fill="none" xmlns="http://www.w3.org/2000/svg">
<g filter="url(#filter0_f_3041_4250)">
<path d="M183.368 154.486C3.70825 400.189 -234.799 291.685 -338 212.913V316.097C-254.401 397.12 -105.853 407.495 -42.0287 405.848C224.346 387.404 387 28.1713 387 -214.998C343.902 1.06297 229.019 94.3774 183.368 154.486Z" fill="url(#paint0_linear_3041_4250)" fill-opacity="0.7"/>
</g>
<path d="M177.5 255.502C39.1 404.702 -154.5 346.335 -234 298.502V304.502C-169.6 353.702 -55.1667 360.002 -6 359.002C199.2 347.802 292.995 106.502 324.5 -17.998C291.3 113.202 212.667 219.002 177.5 255.502Z" fill="url(#paint1_linear_3041_4250)"/>
<g filter="url(#filter1_f_3041_4250)">
<path d="M1300.43 841.333C1396.26 753.739 1545.34 538.257 1335.4 317.868C1284.34 262.281 1212.88 132.668 1007.89 51.9344C1247.2 95.0618 1571.89 318.85 1542.8 584.272C1533.1 647.377 1496.55 791.73 1401.98 859.634L1014.72 1324.41L922.062 1297.98C961.232 1168.77 1190.63 939.711 1300.43 841.333Z" fill="url(#paint2_linear_3041_4250)" fill-opacity="0.6"/>
</g>
<path fill-rule="evenodd" clip-rule="evenodd" d="M1430.09 750.953C1486.3 676.892 1564.97 491.218 1432.03 337.611C1399.59 298.665 1303.02 208.938 1176.23 161.596C1296.54 206.521 1526.14 326.13 1514.85 531.325C1510.47 580.306 1491.7 693.365 1435.75 752.001L1435.47 751.97L1258.5 976.437C1166.16 1084.44 988.198 1307.44 1015 1335.44C1008.83 1334.1 1001.4 1321.94 1021 1283.94C1055.16 1224.77 1128 1123.94 1253.5 972.937L1430 750.937L1430.09 750.953Z" fill="url(#paint3_linear_3041_4250)"/>
<defs>
<filter id="filter0_f_3041_4250" x="-507" y="-383.998" width="1063" height="959" filterUnits="userSpaceOnUse" color-interpolation-filters="sRGB">
<feFlood flood-opacity="0" result="BackgroundImageFix"/>
<feBlend mode="normal" in="SourceGraphic" in2="BackgroundImageFix" result="shape"/>
<feGaussianBlur stdDeviation="84.5" result="effect1_foregroundBlur_3041_4250"/>
</filter>
<filter id="filter1_f_3041_4250" x="753.062" y="-117.066" width="960.562" height="1610.48" filterUnits="userSpaceOnUse" color-interpolation-filters="sRGB">
<feFlood flood-opacity="0" result="BackgroundImageFix"/>
<feBlend mode="normal" in="SourceGraphic" in2="BackgroundImageFix" result="shape"/>
<feGaussianBlur stdDeviation="84.5" result="effect1_foregroundBlur_3041_4250"/>
</filter>
<linearGradient id="paint0_linear_3041_4250" x1="326.637" y1="64.9591" x2="-117.103" y2="300.151" gradientUnits="userSpaceOnUse">
<stop stop-color="#6E2FFF"/>
<stop offset="0.38" stop-color="#B899FF"/>
<stop offset="0.705" stop-color="#B899FF"/>
<stop offset="1" stop-color="#6E2FFF"/>
</linearGradient>
<linearGradient id="paint1_linear_3041_4250" x1="278" y1="152.002" x2="45.25" y2="359.095" gradientUnits="userSpaceOnUse">
<stop stop-color="#621EFC"/>
<stop offset="0.235" stop-color="#946DEC"/>
<stop offset="0.55" stop-color="#B999EE"/>
<stop offset="0.815" stop-color="#946DEC"/>
<stop offset="1" stop-color="#621EFC"/>
</linearGradient>
<linearGradient id="paint2_linear_3041_4250" x1="1305.5" y1="221.436" x2="1189.03" y2="1057.65" gradientUnits="userSpaceOnUse">
<stop stop-color="#6E2FFF"/>
<stop offset="0.253554" stop-color="#B899FF"/>
<stop offset="0.77" stop-color="#B899FF"/>
<stop offset="1" stop-color="#6E2FFF"/>
</linearGradient>
<linearGradient id="paint3_linear_3041_4250" x1="1340.3" y1="226.355" x2="1341.74" y2="1155.44" gradientUnits="userSpaceOnUse">
<stop stop-color="#6827FC"/>
<stop offset="0.114906" stop-color="#773DFB"/>
<stop offset="0.215924" stop-color="#B999EE"/>
<stop offset="0.735" stop-color="#B999EE"/>
<stop offset="0.865" stop-color="#773DFB"/>
<stop offset="1" stop-color="#6827FC"/>
</linearGradient>
</defs>
</svg>
