<svg width="32" height="32" viewBox="0 0 32 32" fill="none" xmlns="http://www.w3.org/2000/svg">
<path d="M20 3.99925V27.9993C19.9999 28.1864 19.9472 28.3697 19.8481 28.5284C19.7489 28.6871 19.6072 28.8148 19.4391 28.8969C19.271 28.9791 19.0832 29.0124 18.8971 28.9932C18.711 28.9739 18.534 28.9028 18.3862 28.788L9.65625 21.9993H4C3.46957 21.9993 2.96086 21.7885 2.58579 21.4135C2.21071 21.0384 2 20.5297 2 19.9993V11.9993C2 11.4688 2.21071 10.9601 2.58579 10.585C2.96086 10.21 3.46957 9.99925 4 9.99925H9.65625L18.3862 3.2105C18.534 3.09566 18.711 3.02457 18.8971 3.00531C19.0832 2.98605 19.271 3.01941 19.4391 3.10157C19.6072 3.18374 19.7489 3.31143 19.8481 3.47012C19.9472 3.62881 19.9999 3.81213 20 3.99925ZM24 11.9993C23.7348 11.9993 23.4804 12.1046 23.2929 12.2921C23.1054 12.4797 23 12.734 23 12.9993V18.9993C23 19.2645 23.1054 19.5188 23.2929 19.7064C23.4804 19.8939 23.7348 19.9993 24 19.9993C24.2652 19.9993 24.5196 19.8939 24.7071 19.7064C24.8946 19.5188 25 19.2645 25 18.9993V12.9993C25 12.734 24.8946 12.4797 24.7071 12.2921C24.5196 12.1046 24.2652 11.9993 24 11.9993ZM28 9.99925C27.7348 9.99925 27.4804 10.1046 27.2929 10.2921C27.1054 10.4797 27 10.734 27 10.9993V20.9993C27 21.2645 27.1054 21.5188 27.2929 21.7064C27.4804 21.8939 27.7348 21.9993 28 21.9993C28.2652 21.9993 28.5196 21.8939 28.7071 21.7064C28.8946 21.5188 29 21.2645 29 20.9993V10.9993C29 10.734 28.8946 10.4797 28.7071 10.2921C28.5196 10.1046 28.2652 9.99925 28 9.99925Z" fill="white"/>
</svg>
